Coordinates
version=1
nRows=16
nColumns=36
inDegrees=yes

Units are S.I. units (second, meters, Newtons, ...)
If the header above contains a line with 'inDegrees', this indicates whether rotational values are in degrees (yes) or radians (no).

endheader
time	pelvis_tilt	pelvis_list	pelvis_rotation	pelvis_tx	pelvis_ty	pelvis_tz	hip_flexion_r	hip_adduction_r	hip_rotation_r	knee_angle_r	knee_angle_r_beta	ankle_angle_r	subtalar_angle_r	mtp_angle_r	hip_flexion_l	hip_adduction_l	hip_rotation_l	knee_angle_l	knee_angle_l_beta	ankle_angle_l	subtalar_angle_l	mtp_angle_l	lumbar_extension	lumbar_bending	lumbar_rotation	arm_flex_r	arm_add_r	arm_rot_r	elbow_flex_r	pro_sup_r	arm_flex_l	arm_add_l	arm_rot_l	elbow_flex_l	pro_sup_l
      0.00000000	      0.29342902	      4.34000486	      8.96681358	     -0.32931527	      1.01728780	     -0.19192062	     25.64512438	     -6.14815911	    -20.93517805	      0.37062016	      0.00646854	      5.70089512	     15.55687810	     -4.65754201	    -15.28008175	      7.76586142	     -0.88406821	      2.86482554	      0.05000064	     13.79323157	      8.47700836	     -4.65754201	     -9.86706659	     -1.80317797	    -10.52444465	    -20.86553524	     -1.12867769	    -24.22238178	     32.26599337	    107.48274545	      5.26318992	    -12.30785872	    -13.50816948	     64.31712754	     98.92776013
      0.01000000	      0.31509429	      4.30161304	      9.13233673	     -0.31372976	      1.01575454	     -0.19137641	     25.44697771	     -5.89372601	    -20.17492093	      0.39504378	      0.00689481	      5.96825388	     16.19055741	     -4.68078545	    -15.81177919	      7.44753683	     -0.97233471	      3.65043807	      0.06371216	     13.80353737	      8.22821281	     -4.68078545	     -9.86131178	     -1.77515990	    -10.69460597	    -21.46966699	     -0.89224271	    -24.21707471	     32.10394150	    107.50793883	      5.71432609	    -12.73273906	    -13.38129677	     65.40755577	     99.07040475
      0.02000000	      0.36861250	      4.23061204	      9.23321401	     -0.29795449	      1.01430021	     -0.19078057	     25.17841514	     -5.56675736	    -19.37619211	      0.44039313	      0.00768631	      6.20856213	     16.85864089	     -4.71251939	    -16.32614399	      7.09292369	     -1.19700566	      4.52641094	      0.07900077	     13.87277221	      8.03132093	     -4.71251939	     -9.90714373	     -1.72135537	    -10.94456968	    -22.05079003	     -0.77111874	    -24.27410014	     31.98702878	    107.54901397	      5.92847246	    -13.20776062	    -13.20388151	     66.77723393	     99.26677615
      0.03000000	      0.42238383	      4.07712578	      9.38664289	     -0.28193499	      1.01310025	     -0.19009363	     24.79535419	     -5.14431182	    -18.59217062	      0.49396727	      0.00862136	      6.05807747	     17.15010627	     -4.75426523	    -16.75391105	      6.60948441	     -1.40539321	      5.54072864	      0.09670396	     13.82824581	      8.01133060	     -4.75426523	     -9.90626284	     -1.57006463	    -11.24827270	    -22.54454621	     -0.60188116	    -24.33948033	     31.83971533	    107.59764008	      6.01275397	    -13.66332437	    -13.22669618	     68.06834964	     99.45235557
      0.04000000	      0.50835236	      3.91686373	      9.52956009	     -0.26570242	      1.01222494	     -0.18924185	     24.26831654	     -4.66886201	    -17.78107264	      0.54981654	      0.00959611	      5.51356849	     17.06479861	     -4.78555892	    -17.09672702	      6.09156687	     -1.62576748	      6.77224451	      0.11819796	     13.62482954	      7.79768937	     -4.78555892	     -9.92144990	     -1.44168301	    -11.45819636	    -22.98061617	     -0.42374932	    -24.40508861	     31.64032750	    107.60914289	      6.07470300	    -14.05478613	    -13.22712948	     69.25708822	     99.60549247
      0.05000000	      0.54317903	      3.66329169	      9.65016524	     -0.24921703	      1.01161245	     -0.18823422	     23.69100908	     -4.05211386	    -16.81208490	      0.57526935	      0.01004034	      4.51536867	     16.28855526	     -4.83152565	    -17.24998540	      5.46785680	     -1.90758004	      8.21074090	      0.14330446	     13.27009452	      7.59531673	     -4.83152565	     -9.84073852	     -1.22321610	    -11.71469586	    -23.29829565	     -0.29191178	    -24.49687674	     31.42331970	    107.62833428	      5.85830703	    -14.40180387	    -13.36363341	     70.55145884	     99.76434998
      0.06000000	      0.56384578	      3.41822142	      9.73299059	     -0.23251051	      1.01136264	     -0.18709193	     23.03340223	     -3.40210579	    -15.92842636	      0.56162597	      0.00980222	      3.23625606	     15.24328735	     -4.87616938	    -17.26172654	      4.85751421	     -2.13993545	      9.87707144	      0.17238742	     12.66418024	      7.18321174	     -4.87616938	     -9.72196986	     -1.06202855	    -11.86309053	    -23.53937888	     -0.14244292	    -24.55627532	     31.17928743	    107.64866312	      5.57086982	    -14.65242473	    -13.52448571	     71.71336371	     99.89596753
      0.07000000	      0.40980157	      3.19969892	      9.77383194	     -0.21576140	      1.01126446	     -0.18583147	     22.49192288	     -2.76736578	    -14.66825917	      0.50002664	      0.00872711	      1.62308927	     13.25547985	     -4.96289731	    -16.94928994	      4.32295268	     -2.24182577	     11.75338379	      0.20513525	     11.83861296	      6.60719609	     -4.96289731	     -9.41594303	     -0.97461956	    -12.05460149	    -23.65157118	     -0.04977765	    -24.54261064	     30.85071811	    107.78355244	      5.01695469	    -14.79433932	    -14.02200196	     72.97248679	    100.04829677
      0.08000000	      0.49183056	      2.94808615	      9.81319326	     -0.19872021	      1.01182136	     -0.18466641	     21.68232928	     -2.13895531	    -14.42149672	      0.47801958	      0.00834302	      0.33290716	     12.71189008	     -4.99333691	    -16.71751827	      3.70629326	     -2.45703240	     13.89106588	      0.24244484	     10.65182077	      5.75915751	     -4.99333691	     -9.32948434	     -0.79457627	    -11.93467937	    -23.84654375	      0.09000240	    -24.54571925	     30.65602098	    107.79170989	      4.67914672	    -14.91583183	    -13.95517141	     73.81266965	    100.13761221
      0.09000000	      0.24822715	      2.72718183	      9.78875404	     -0.18182973	      1.01229665	     -0.18335830	     21.18948864	     -1.56157817	    -13.39732591	      0.41721380	      0.00728175	     -1.44642181	     10.68889109	     -5.08294247	    -15.96471342	      3.23478579	     -2.40515336	     16.26839504	      0.28393706	      9.13826789	      4.41933756	     -5.08294247	     -8.90943536	     -0.73219984	    -11.94856745	    -23.84807411	      0.15988501	    -24.45792131	     30.36478402	    107.94719617	      3.94999634	    -14.90488675	    -14.39993185	     74.87310200	    100.23152222
      0.10000000	      0.17300737	      2.48228905	      9.74207862	     -0.16484124	      1.01323696	     -0.18208834	     20.51571556	     -1.00593990	    -12.91620623	      0.39626989	      0.00691621	     -2.91361099	      9.51016772	     -5.16811331	    -15.15947381	      2.68512862	     -2.55129485	     18.97923127	      0.33125008	      7.34346137	      3.12110476	     -5.16811331	     -8.66644308	     -0.61191991	    -11.74309733	    -23.87451517	      0.23466520	    -24.30406207	     30.19581299	    108.08690813	      3.33627787	    -14.83762478	    -14.55969618	     75.67586406	    100.29122302
      0.11000000	      0.28177489	      2.12661602	      9.65531790	     -0.14776636	      1.01456908	     -0.18076494	     19.64989419	     -0.35808472	    -12.80942563	      0.40464471	      0.00706238	     -4.07397756	      8.97899212	     -5.20126783	    -14.30810469	      1.93424220	     -2.97040013	     22.00548587	      0.38406818	      5.31512394	      2.05179656	     -5.20126783	     -8.60873467	     -0.33164427	    -11.33443713	    -23.90485732	      0.32640013	    -24.22717041	     30.18138038	    108.11015775	      2.79063551	    -14.72448503	    -14.48935416	     76.30811593	    100.33191754
      0.12000000	      0.13690699	      1.84135112	      9.53408956	     -0.13120483	      1.01576546	     -0.17934693	     19.05319641	      0.16863645	    -11.96331821	      0.42245906	      0.00737330	     -5.56703988	      7.25136959	     -5.28671328	    -12.92527008	      1.34223444	     -3.13499205	     25.36530498	      0.44270809	      2.78644064	      0.33665599	     -5.28671328	     -8.35007595	     -0.19094290	    -10.97110130	    -23.79421924	      0.36041316	    -23.99286991	     30.20253222	    108.24573468	      2.07258738	    -14.50581888	    -14.72191410	     76.96850958	    100.30843545
      0.13000000	      0.20298096	      1.39603352	      9.38324244	     -0.11473857	      1.01724670	     -0.17785438	     18.25424847	      0.85487299	    -11.49540969	      0.47668774	      0.00831977	     -6.67786039	      6.26866181	     -5.36029008	    -11.51536078	      0.46036873	     -3.55592896	     29.00565837	      0.50624424	      0.03364357	     -1.10019857	     -5.36029008	     -8.31588343	      0.16459075	    -10.42651789	    -23.66232102	      0.37112223	    -23.76353322	     30.37999593	    108.33899803	      1.44688963	    -14.26238923	    -14.72077097	     77.48956537	    100.26467795
      0.14000000	      0.29640105	      0.87769604	      9.22135757	     -0.09866304	      1.01877107	     -0.17634793	     17.45750172	      1.59638296	    -10.99105329	      0.58381406	      0.01018948	     -7.57705414	      5.31855073	     -5.43683456	     -9.91139467	     -0.52552288	     -3.95113541	     32.85668802	      0.57345739	     -2.99310476	     -2.66689980	     -5.43683456	     -8.36284872	      0.60198567	     -9.81073185	    -23.45606849	      0.35720859	    -23.53293770	     30.66238005	    108.40265718	      0.82711094	    -13.96691484	    -14.67310217	     77.92584723	    100.17052198
      0.15000000	      0.58501012	      0.18193204	      9.06366333	     -0.08287647	      1.02048643	     -0.17478460	     16.49762834	      2.53677540	    -10.83847911	      0.75878894	      0.01324337	     -7.90548864	      5.08470195	     -5.46861273	     -8.32323163	     -1.81957464	     -4.40237562	     36.85146358	      0.64317937	     -5.81102448	     -3.63754910	     -5.46861273	     -8.64910244	      1.26939271	     -9.08036985	    -23.14987238	      0.29955192	    -23.36669016	     31.00781815	    108.29968887	      0.26162682	    -13.64302116	    -14.49212652	     78.29686674	    100.08235401
